<svg width="24.000000" height="33.000000" viewBox="0 0 24 33" fill="none" xmlns="http://www.w3.org/2000/svg" xmlns:xlink="http://www.w3.org/1999/xlink">
	<desc>
			Created with Pixso.
	</desc>
	<defs/>
	<path id="рублик" d="M3.2 0L3.2 13.35L0 13.35L0 18.07L2.92 18.07L2.92 22.25L0 22.25L0 26.96L2.92 26.96L2.92 33L7.72 33L7.72 26.96L16.79 26.96L16.79 22.25L7.72 22.25L7.72 18.07L14.79 18.07C19.88 18.07 24 14.02 24 9.03C24 4.04 19.88 0 14.79 0L3.2 0ZM14.79 4.71L8 4.71L8 13.35L14.79 13.35C17.23 13.35 19.2 11.42 19.2 9.03C19.2 6.64 17.23 4.71 14.79 4.71Z" fill="#102654" fill-opacity="1.000000" fill-rule="evenodd"/>
</svg>
